<svg width="1440" height="505" viewBox="0 0 1440 505" fill="none" xmlns="http://www.w3.org/2000/svg">
<g clip-path="url(#clip0_108_15)">
<path d="M1539 73L1515.61 106.614C1492.22 140.859 1445.66 207.141 1398.45 266.636C1351.78 325.5 1305.1 376 1257.9 367.636C1211.22 358.641 1164.55 292.359 1117.34 275C1070.78 257.641 1024 292.359 976.792 333.864C930.334 376 883.448 426.5 836.24 392.886C789.89 358.641 742.896 241.859 696.76 207.614C649.445 174 602.344 224.5 556.208 232.864C509 241.859 461.792 207.141 415.656 224.5C368.555 241.859 321.24 308.141 275.104 325.5C228.11 342.859 181.76 308.141 134.552 241.386C87.6656 174 41.2084 73 17.6042 22.5L-6 -28V477H17.3896C40.7793 477 87.3438 477 134.552 477C181.224 477 227.896 477 275.104 477C321.776 477 368.448 477 415.656 477C462.221 477 509 477 556.208 477C602.666 477 649.552 477 696.76 477C743.11 477 790.104 477 836.24 477C883.555 477 930.656 477 976.792 477C1024 477 1071.21 477 1117.34 477C1164.44 477 1211.76 477 1257.9 477C1304.89 477 1351.24 477 1398.45 477C1445.33 477 1491.79 477 1515.4 477H1539V73Z" fill="#A592AD"/>
<path d="M1510 108L1486.61 141.614C1463.22 175.859 1416.66 242.141 1369.45 301.636C1322.78 360.5 1276.1 411 1228.9 402.636C1182.22 393.641 1135.55 327.359 1088.34 310C1041.78 292.641 995 327.359 947.792 368.864C901.334 411 854.448 461.5 807.24 427.886C760.89 393.641 713.896 276.859 667.76 242.614C620.445 209 573.344 259.5 527.208 267.864C480 276.859 432.792 242.141 386.656 259.5C339.555 276.859 292.24 343.141 246.104 360.5C199.11 377.859 152.76 343.141 105.552 276.386C58.6656 209 12.2084 108 -11.3958 57.5L-35 7V512H-11.6104C11.7793 512 58.3438 512 105.552 512C152.224 512 198.896 512 246.104 512C292.776 512 339.448 512 386.656 512C433.221 512 480 512 527.208 512C573.666 512 620.552 512 667.76 512C714.11 512 761.104 512 807.24 512C854.555 512 901.656 512 947.792 512C995 512 1042.21 512 1088.34 512C1135.44 512 1182.76 512 1228.9 512C1275.89 512 1322.24 512 1369.45 512C1416.33 512 1462.79 512 1486.4 512H1510V108Z" fill="#F7D1CD"/>
</g>
<defs>
<clipPath id="clip0_108_15">
<rect width="1545" height="505" fill="white" transform="matrix(-1 0 0 1 1492 0)"/>
</clipPath>
</defs>
</svg>
